<?xml version="1.0" encoding="UTF-8"?>
<svg class="gain-slider-10" width="126px" height="127px" viewBox="0 0 126 127" version="1.1" xmlns="http://www.w3.org/2000/svg" xmlns:xlink="http://www.w3.org/1999/xlink">
    <!-- Generator: Sketch 63.1 (92452) - https://sketch.com -->
    <title>Group 538</title>
    <desc>Created with Sketch.</desc>
    <defs>
        <filter x="-36.8%" y="-36.4%" width="173.6%" height="172.9%" filterUnits="objectBoundingBox" id="gain-slider-1">
            <feOffset dx="10" dy="10" in="SourceAlpha" result="shadowOffsetOuter1"></feOffset>
            <feGaussianBlur stdDeviation="5" in="shadowOffsetOuter1" result="shadowBlurOuter1"></feGaussianBlur>
            <feColorMatrix values="0 0 0 0 0   0 0 0 0 0   0 0 0 0 0  0 0 0 0.5 0" type="matrix" in="shadowBlurOuter1" result="shadowMatrixOuter1"></feColorMatrix>
            <feMerge>
                <feMergeNode in="shadowMatrixOuter1"></feMergeNode>
                <feMergeNode in="SourceGraphic"></feMergeNode>
            </feMerge>
        </filter>
        <path d="M0.27,51.694 C0.27,79.645 23.067,102.444 51.019,102.444 L51.019,102.444 C78.97,102.444 101.767,79.645 101.767,51.694 L101.767,51.694 C101.767,23.742 78.97,0.946 51.019,0.946 L51.019,0.946 C23.067,0.946 0.27,23.742 0.27,51.694" id="path-2"></path>
        <path d="M0.639,48.694 C0.639,75.341 22.373,97.073 49.019,97.073 L49.019,97.073 C75.665,97.073 97.398,75.341 97.398,48.694 L97.398,48.694 C97.398,22.047 75.665,0.317 49.019,0.317 L49.019,0.317 C22.373,0.317 0.639,22.047 0.639,48.694" id="path-4"></path>
        <linearGradient x1="49.9997411%" y1="0.999252139%" x2="49.9997411%" y2="99.0015437%" id="linearGradient-6">
            <stop stop-color="#E6E7E7" offset="0%"></stop>
            <stop stop-color="#DBDCDD" offset="100%"></stop>
        </linearGradient>
        6,74.118 21.655,95.487 48.019,95.487 L48.019,95.487 C74.383,95.487 95.861,74.118 95.861,47.889 L95.861,47.889 C95.861,21.658 74.383,0.292 48.019,0.292 L48.019,0.292 C21.655,0.292 0.176,21.658 0.176,47.889" id="path-25"></path>
        <path d="M0.229,47.909 C0.229,74.094 21.683,95.429 48.019,95.429 L48.019,95.429 C74.355,95.429 95.807,74.094 95.807,47.909 L95.807,47.909 C95.807,21.721 74.355,0.39 48.019,0.39 L48.019,0.39 C21.683,0.39 0.229,21.721 0.229,47.909" id="path-27"></path>
        <path d="M0.283,47.929 C0.283,74.073 21.712,95.369 48.019,95.369 L48.019,95.369 C74.326,95.369 95.754,74.073 95.754,47.929 L95.754,47.929 C95.754,21.782 74.326,0.487 48.019,0.487 L48.019,0.487 C21.712,0.487 0.283,21.782 0.283,47.929" id="path-29"></path>
        <path d="M0.336,47.946 C0.336,74.049 21.74,95.311 48.019,95.311 L48.019,95.311 C74.298,95.311 95.7,74.049 95.7,47.946 L95.7,47.946 C95.7,21.842 74.298,0.582 48.019,0.582 L48.019,0.582 C21.74,0.582 0.336,21.842 0.336,47.946" id="path-31"></path>
        <path d="M0.39,47.965 C0.39,74.028 21.769,95.252 48.019,95.252 L48.019,95.252 C74.269,95.252 95.646,74.028 95.646,47.965 L95.646,47.965 C95.646,21.905 74.269,0.68 48.019,0.68 L48.019,0.68 C21.769,0.68 0.39,21.905 0.39,47.965" id="path-33"></path>
        <path d="M0.444,47.985 C0.444,74.004 21.797,95.194 48.019,95.194 L48.019,95.194 C74.242,95.194 95.593,74.004 95.593,47.985 L95.593,47.985 C95.593,21.965 74.242,0.778 48.019,0.778 L48.019,0.778 C21.797,0.778 0.444,21.965 0.444,47.985" id="path-35"></path>
        <path d="M0.497,48.004 C0.497,73.983 21.826,95.135 48.019,95.135 L48.019,95.135 C74.213,95.135 95.539,73.983 95.539,48.004 L95.539,48.004 C95.539,22.026 74.213,0.876 48.019,0.876 L48.019,0.876 C21.826,0.876 0.497,22.026 0.497,48.004" id="path-37"></path>
        <path d="M0.551,48.024 C0.551,73.962 21.853,95.077 48.019,95.077 L48.019,95.077 C74.185,95.077 95.486,73.962 95.486,48.024 L95.486,48.024 C95.486,22.089 74.185,0.973 48.019,0.973 L48.019,0.973 C21.853,0.973 0.551,22.089 0.551,48.024" id="path-39"></path>
        <path d="M0.605,47.044 C0.605,72.939 21.882,94.018 48.019,94.018 L48.019,94.018 C74.156,94.018 95.432,72.939 95.432,47.044 L95.432,47.044 C95.432,21.149 74.156,0.071 48.019,0.071 L48.019,0.071 C21.882,0.071 0.605,21.149 0.605,47.044" id="path-41"></path>
        <path d="M0.658,47.063 C0.658,72.917 21.91,93.96 48.019,93.96 L48.019,93.96 C74.128,93.96 95.378,72.917 95.378,47.063 L95.378,47.063 C95.378,21.209 74.128,0.168 48.019,0.168 L48.019,0.168 C21.91,0.168 0.658,21.209 0.658,47.063" id="path-43"></path>
        <path d="M0.712,47.083 C0.712,72.894 21.938,93.899 48.019,93.899 L48.019,93.899 C74.099,93.899 95.325,72.894 95.325,47.083 L95.325,47.083 C95.325,21.272 74.099,0.266 48.019,0.266 L48.019,0.266 C21.938,0.266 0.712,21.272 0.712,47.083" id="path-45"></path>
        <path d="M0.766,47.102 C0.766,72.872 21.966,93.84 48.019,93.84 L48.019,93.84 C74.071,93.84 95.272,72.872 95.272,47.102 L95.272,47.102 C95.272,21.333 74.071,0.363 48.019,0.363 L48.019,0.363 C21.966,0.363 0.766,21.333 0.766,47.102" id="path-47"></path>
        <path d="M0.82,47.122 C0.82,72.849 21.995,93.782 48.019,93.782 L48.019,93.782 C74.043,93.782 95.218,72.849 95.218,47.122 L95.218,47.122 C95.218,21.393 74.043,0.462 48.019,0.462 L48.019,0.462 C21.995,0.462 0.82,21.393 0.82,47.122" id="path-49"></path>
        <path d="M0.873,47.141 C0.873,72.827 22.023,93.723 48.019,93.723 L48.019,93.723 C74.015,93.723 95.164,72.827 95.164,47.141 L95.164,47.141 C95.164,21.456 74.015,0.557 48.019,0.557 L48.019,0.557 C22.023,0.557 0.873,21.456 0.873,47.141" id="path-51"></path>
        <path d="M0.927,47.161 C0.927,72.804 22.051,93.665 48.019,93.665 L48.019,93.665 C73.986,93.665 95.111,72.804 95.111,47.161 L95.111,47.161 C95.111,21.516 73.986,0.655 48.019,0.655 L48.019,0.655 C22.051,0.655 0.927,21.516 0.927,47.161" id="path-53"></path>
        <path d="M0.981,47.181 C0.981,72.782 22.079,93.606 48.019,93.606 L48.019,93.606 C73.958,93.606 95.057,72.782 95.057,47.181 L95.057,47.181 C95.057,21.576 73.958,0.752 48.019,0.752 L48.019,0.752 C22.079,0.752 0.981,21.576 0.981,47.181" id="path-55"></path>
        <path d="M0.035,47.199 C0.035,72.76 21.108,93.548 47.019,93.548 L47.019,93.548 C72.93,93.548 94.004,72.76 94.004,47.199 L94.004,47.199 C94.004,21.639 72.93,0.85 47.019,0.85 L47.019,0.85 C21.108,0.85 0.035,21.639 0.035,47.199" id="path-57"></path>
        <path d="M0.088,47.219 C0.088,72.737 21.136,93.489 47.019,93.489 L47.019,93.489 C72.902,93.489 93.95,72.737 93.95,47.219 L93.95,47.219 C93.95,21.7 72.902,0.948 47.019,0.948 L47.019,0.948 C21.136,0.948 0.088,21.7 0.088,47.219" id="path-59"></path>
        <path d="M0.142,46.239 C0.142,71.715 21.165,92.431 47.019,92.431 L47.019,92.431 C72.873,92.431 93.896,71.715 93.896,46.239 L93.896,46.239 C93.896,20.76 72.873,0.046 47.019,0.046 L47.019,0.046 C21.165,0.046 0.142,20.76 0.142,46.239" id="path-61"></path>
        <path d="M0.196,46.259 C0.196,71.692 21.193,92.372 47.019,92.372 L47.019,92.372 C72.846,92.372 93.842,71.692 93.842,46.259 L93.842,46.259 C93.842,20.823 72.846,0.143 47.019,0.143 L47.019,0.143 C21.193,0.143 0.196,20.823 0.196,46.259" id="path-63"></path>
        <path d="M0.249,46.276 C0.249,71.67 21.221,92.313 47.019,92.313 L47.019,92.313 C72.817,92.313 93.788,71.67 93.788,46.276 L93.788,46.276 C93.788,20.883 72.817,0.241 47.019,0.241 L47.019,0.241 C21.221,0.241 0.249,20.883 0.249,46.276" id="path-65"></path>
        <path d="M0.302,46.296 C0.302,71.647 21.249,92.254 47.019,92.254 L47.019,92.254 C72.789,92.254 93.734,71.647 93.734,46.296 L93.734,46.296 C93.734,20.944 72.789,0.338 47.019,0.338 L47.019,0.338 C21.249,0.338 0.302,20.944 0.302,46.296" id="path-67"></path>
        <path d="M0.356,46.315 C0.356,71.625 21.277,92.196 47.019,92.196 L47.019,92.196 C72.76,92.196 93.681,71.625 93.681,46.315 L93.681,46.315 C93.681,21.007 72.76,0.436 47.019,0.436 L47.019,0.436 C21.277,0.436 0.356,21.007 0.356,46.315" id="path-69"></path>
        <path d="M0.41,46.335 C0.41,71.602 21.305,92.137 47.019,92.137 L47.019,92.137 C72.732,92.137 93.628,71.602 93.628,46.335 L93.628,46.335 C93.628,21.067 72.732,0.533 47.019,0.533 L47.019,0.533 C21.305,0.533 0.41,21.067 0.41,46.335" id="path-71"></path>
        <path d="M0.463,46.354 C0.463,71.58 21.334,92.079 47.019,92.079 L47.019,92.079 C72.703,92.079 93.574,71.58 93.574,46.354 L93.574,46.354 C93.574,21.127 72.703,0.63 47.019,0.63 L47.019,0.63 C21.334,0.63 0.463,21.127 0.463,46.354" id="path-73"></path>
        <path d="M0.517,46.374 C0.517,71.557 21.362,92.02 47.019,92.02 L47.019,92.02 C72.675,92.02 93.52,71.557 93.52,46.374 L93.52,46.374 C93.52,21.19 72.675,0.727 47.019,0.727 L47.019,0.727 C21.362,0.727 0.517,21.19 0.517,46.374" id="path-75"></path>
        <path d="M0.571,46.393 C0.571,71.535 21.391,91.962 47.019,91.962 L47.019,91.962 C72.647,91.962 93.467,71.535 93.467,46.393 L93.467,46.393 C93.467,21.251 72.647,0.825 47.019,0.825 L47.019,0.825 C21.391,0.825 0.571,21.251 0.571,46.393" id="path-77"></path>
        <path d="M0.624,46.413 C0.624,71.515 21.419,91.903 47.019,91.903 L47.019,91.903 C72.619,91.903 93.413,71.515 93.413,46.413 L93.413,46.413 C93.413,21.311 72.619,0.922 47.019,0.922 L47.019,0.922 C21.419,0.922 0.624,21.311 0.624,46.413" id="path-79"></path>
        <path d="M0.678,45.433 C0.678,70.491 21.447,90.845 47.019,90.845 L47.019,90.845 C72.59,90.845 93.36,70.491 93.36,45.433 L93.36,45.433 C93.36,20.374 72.59,0.02 47.019,0.02 L47.019,0.02 C21.447,0.02 0.678,20.374 0.678,45.433" id="path-81"></path>
        <path d="M0.731,45.451 C0.731,70.47 21.475,90.785 47.019,90.785 L47.019,90.785 C72.562,90.785 93.306,70.47 93.306,45.451 L93.306,45.451 C93.306,20.434 72.562,0.118 47.019,0.118 L47.019,0.118 C21.475,0.118 0.731,20.434 0.731,45.451" id="path-83"></path>
        <path d="M0.785,45.471 C0.785,70.446 21.504,90.727 47.019,90.727 L47.019,90.727 C72.534,90.727 93.252,70.446 93.252,45.471 L93.252,45.471 C93.252,20.494 72.534,0.216 47.019,0.216 L47.019,0.216 C21.504,0.216 0.785,20.494 0.785,45.471" id="path-85"></path>
        <path d="M0.839,45.491 C0.839,70.425 21.532,90.668 47.019,90.668 L47.019,90.668 C72.505,90.668 93.199,70.425 93.199,45.491 L93.199,45.491 C93.199,20.557 72.505,0.313 47.019,0.313 L47.019,0.313 C21.532,0.313 0.839,20.557 0.839,45.491" id="path-87"></path>
        <path d="M0.892,45.51 C0.892,70.401 21.561,90.61 47.019,90.61 L47.019,90.61 C72.477,90.61 93.145,70.401 93.145,45.51 L93.145,45.51 C93.145,20.618 72.477,0.411 47.019,0.411 L47.019,0.411 C21.561,0.411 0.892,20.618 0.892,45.51" id="path-89"></path>
        <path d="M0.946,45.53 C0.946,70.38 21.589,90.551 47.019,90.551 L47.019,90.551 C72.45,90.551 93.092,70.38 93.092,45.53 L93.092,45.53 C93.092,20.678 72.45,0.508 47.019,0.508 L47.019,0.508 C21.589,0.508 0.946,20.678 0.946,45.53" id="path-91"></path>
        <path d="M0,45.55 C0,70.356 20.618,90.493 46.019,90.493 L46.019,90.493 C71.421,90.493 92.038,70.356 92.038,45.55 L92.038,45.55 C92.038,20.739 71.421,0.604 46.019,0.604 L46.019,0.604 C20.618,0.604 0,20.739 0,45.55" id="path-93"></path>
        <path d="M0.053,45.569 C0.053,70.335 20.645,90.433 46.019,90.433 L46.019,90.433 C71.393,90.433 91.985,70.335 91.985,45.569 L91.985,45.569 C91.985,20.801 71.393,0.702 46.019,0.702 L46.019,0.702 C20.645,0.702 0.053,20.801 0.053,45.569" id="path-95"></path>
        <path d="M0.107,45.588 C0.107,70.313 20.673,90.374 46.019,90.374 L46.019,90.374 C71.364,90.374 91.931,70.313 91.931,45.588 L91.931,45.588 C91.931,20.862 71.364,0.8 46.019,0.8 L46.019,0.8 C20.673,0.8 0.107,20.862 0.107,45.588" id="path-97"></path>
        <path d="M0.161,45.606 C0.161,70.29 20.701,90.315 46.019,90.315 L46.019,90.315 C71.336,90.315 91.877,70.29 91.877,45.606 L91.877,45.606 C91.877,20.923 71.336,0.897 46.019,0.897 L46.019,0.897 C20.701,0.897 0.161,20.923 0.161,45.606" id="path-99"></path>
        <path d="M0.214,44.625 C0.214,69.268 20.73,89.256 46.019,89.256 L46.019,89.256 C71.307,89.256 91.823,69.268 91.823,44.625 L91.823,44.625 C91.823,19.985 71.307,-0.005 46.019,-0.005 L46.019,-0.005 C20.73,-0.005 0.214,19.985 0.214,44.625" id="path-101"></path>
        <path d="M0.268,44.645 C0.268,69.245 20.758,89.198 46.019,89.198 L46.019,89.198 C71.279,89.198 91.77,69.245 91.77,44.645 L91.77,44.645 C91.77,20.045 71.279,0.092 46.019,0.092 L46.019,0.092 C20.758,0.092 0.268,20.045 0.268,44.645" id="path-103"></path>
        <path d="M0.322,44.665 C0.322,69.223 20.787,89.139 46.019,89.139 L46.019,89.139 C71.251,89.139 91.717,69.223 91.717,44.665 L91.717,44.665 C91.717,20.106 71.251,0.19 46.019,0.19 L46.019,0.19 C20.787,0.19 0.322,20.106 0.322,44.665" id="path-105"></path>
        <path d="M0.376,44.685 C0.376,69.2 20.815,89.081 46.019,89.081 L46.019,89.081 C71.223,89.081 91.663,69.2 91.663,44.685 L91.663,44.685 C91.663,20.169 71.223,0.288 46.019,0.288 L46.019,0.288 C20.815,0.288 0.376,20.169 0.376,44.685" id="path-107"></path>
        <path d="M0.967,21.733 L81.07,21.733 C72.397,8.874 57.694,0.415 41.019,0.415 L41.019,0.415 C24.344,0.415 9.641,8.874 0.967,21.733" id="path-109"></path>
        <linearGradient x1="50.0000635%" y1="-3.5287785%" x2="50.0000635%" y2="98.950349%" id="linearGradient-111">
            <stop stop-color="#E6E7E7" offset="0%"></stop>
            <stop stop-color="#E6E7E7" offset="100%"></stop>
        </linearGradient>
        <path d="M0.089,21.733 L79.949,21.733 C71.291,8.93 56.637,0.512 40.019,0.512 L40.019,0.512 C23.402,0.512 8.747,8.93 0.089,21.733" id="path-112"></path>
        <linearGradient x1="49.9997481%" y1="-3.52369587%" x2="49.9997481%" y2="98.9526248%" id="linearGradient-114">
            <stop stop-color="#E6E7E7" offset="0%"></stop>
            <stop stop-color="#E6E7E7" offset="100%"></stop>
        </linearGradient>
        <path d="M0.209,21.733 L79.828,21.733 C71.184,8.987 56.578,0.608 40.019,0.608 L40.019,0.608 C23.459,0.608 8.854,8.987 0.209,21.733" id="path-115"></path>
        <linearGradient x1="50.0000592%" y1="-3.52265941%" x2="50.0000592%" y2="98.9502395%" id="linearGradient-117">
            <stop stop-color="#E6E7E7" offset="0%"></stop>
            <stop stop-color="#E6E7E7" offset="100%"></stop>
        </linearGradient>
        <path d="M0.33,21.733 L79.707,21.733 C71.078,9.043 56.521,0.706 40.019,0.706 L40.019,0.706 C23.517,0.706 8.96,9.043 0.33,21.733" id="path-118"></path>
        <linearGradient x1="50.0000593%" y1="-3.52195368%" x2="50.0000593%" y2="98.9524854%" id="linearGradient-120">
            <stop stop-color="#E6E7E7" offset="0%"></stop>
            <stop stop-color="#E6E7E7" offset="100%"></stop>
        </linearGradient>
        <path d="M0.451,21.733 L79.587,21.733 C70.972,9.1 56.463,0.804 40.019,0.804 L40.019,0.804 C23.575,0.804 9.066,9.1 0.451,21.733" id="path-121"></path>
        <linearGradient x1="49.9994277%" y1="-3.52127718%" x2="49.9994277%" y2="98.9547169%" id="linearGradient-123">
            <stop stop-color="#E6E7E7" offset="0%"></stop>
            <stop stop-color="#E5E6E7" offset="100%"></stop>
        </linearGradient>
        <path d="M0.571,21.733 L79.466,21.733 C70.866,9.157 56.405,0.901 40.019,0.901 L40.019,0.901 C23.633,0.901 9.173,9.157 0.571,21.733" id="path-124"></path>
        <linearGradient x1="50.0003787%" y1="-3.51606519%" x2="50.0003787%" y2="98.957055%" id="linearGradient-126">
            <stop stop-color="#E6E7E7" offset="0%"></stop>
            <stop stop-color="#E5E6E7" offset="100%"></stop>
        </linearGradient>
        <path d="M0.692,20.733 L79.346,20.733 C70.76,8.213 56.347,-0.001 40.019,-0.001 L40.019,-0.001 C23.691,-0.001 9.279,8.213 0.692,20.733" id="path-127"></path>
        <linearGradient x1="49.9994242%" y1="-3.52495852%" x2="49.9994242%" y2="98.9497246%" id="linearGradient-129">
            <stop stop-color="#E6E7E7" offset="0%"></stop>
            <stop stop-color="#E5E6E7" offset="100%"></stop>
        </linearGradient>
        <path d="M0.812,20.733 L79.225,20.733 C70.653,8.272 56.289,0.096 40.019,0.096 L40.019,0.096 C23.749,0.096 9.385,8.272 0.812,20.733" id="path-130"></path>
        <linearGradient x1="50.0000601%" y1="-3.5192339%" x2="50.0000601%" y2="98.9569046%" id="linearGradient-132">
            <stop stop-color="#E6E7E7" offset="0%"></stop>
            <stop stop-color="#E5E6E7" offset="100%"></stop>
        </linearGradient>
        <path d="M0.933,20.733 L79.104,20.733 C70.547,8.329 56.232,0.194 40.019,0.194 L40.019,0.194 C23.807,0.194 9.491,8.329 0.933,20.733" id="path-133"></path>
        <linearGradient x1="50.0000603%" y1="-3.52822679%" x2="50.0000603%" y2="98.9494946%" id="linearGradient-135">
            <stop stop-color="#E6E7E7" offset="0%"></stop>
            <stop stop-color="#E5E6E7" offset="100%"></stop>
        </linearGradient>
        <path d="M0.055,20.733 L77.984,20.733 C69.44,8.385 55.173,0.292 39.019,0.292 L39.019,0.292 C22.864,0.292 8.597,8.385 0.055,20.733" id="path-136"></path>
        <linearGradient x1="49.9991002%" y1="-3.52752752%" x2="49.9991002%" y2="98.9522964%" id="linearGradient-138">
            <stop stop-color="#E6E7E7" offset="0%"></stop>
            <stop stop-color="#E5E6E7" offset="100%"></stop>
        </linearGradient>
        <path d="M0.175,20.733 L77.863,20.733 C69.334,8.442 55.116,0.39 39.019,0.39 L39.019,0.39 C22.923,0.39 8.704,8.442 0.175,20.733" id="path-139"></path>
        <linearGradient x1="49.999741%" y1="-3.52734651%" x2="49.999741%" y2="98.9540933%" id="linearGradient-141">
            <stop stop-color="#E6E7E7" offset="0%"></stop>
            <stop stop-color="#E5E6E7" offset="100%"></stop>
        </linearGradient>
        <path d="M0.296,20.733 L77.742,20.733 C69.228,8.499 55.058,0.487 39.019,0.487 L39.019,0.487 C22.98,0.487 8.81,8.499 0.296,20.733" id="path-142"></path>
        <linearGradient x1="49.9994152%" y1="-3.52152228%" x2="49.9994152%" y2="98.9564966%" id="linearGradient-144">
            <stop stop-color="#E6E7E7" offset="0%"></stop>
            <stop stop-color="#E5E6E7" offset="100%"></stop>
        </linearGradient>
        <path d="M0.416,20.733 L77.621,20.733 C69.121,8.555 55,0.582 39.019,0.582 L39.019,0.582 C23.038,0.582 8.917,8.555 0.416,20.733" id="path-145"></path>
        <linearGradient x1="50.000061%" y1="-3.51528808%" x2="50.000061%" y2="98.9540663%" id="linearGradient-147">
            <stop stop-color="#E6E7E7" offset="0%"></stop>
            <stop stop-color="#E5E6E7" offset="100%"></stop>
        </linearGradient>
        <path d="M0.537,20.733 L77.5,20.733 C69.015,8.612 54.942,0.68 39.019,0.68 L39.019,0.68 C23.095,0.68 9.023,8.612 0.537,20.733" id="path-148"></path>
        <linearGradient x1="50.0003882%" y1="-3.51451154%" x2="50.0003882%" y2="98.9569351%" id="linearGradient-150">
            <stop stop-color="#E6E7E7" offset="0%"></stop>
            <stop stop-color="#E5E6E7" offset="100%"></stop>
        </linearGradient>
        <path d="M0.658,20.733 L77.38,20.733 C68.909,8.669 54.883,0.778 39.019,0.778 L39.019,0.778 C23.154,0.778 9.129,8.669 0.658,20.733" id="path-151"></path>
        <linearGradient x1="49.9997378%" y1="-3.52374493%" x2="49.9997378%" y2="98.949318%" id="linearGradient-153">
            <stop stop-color="#E6E7E7" offset="0%"></stop>
            <stop stop-color="#E4E5E6" offset="100%"></stop>
        </linearGradient>
        <path d="M0.778,20.733 L77.259,20.733 C68.803,8.725 54.826,0.876 39.019,0.876 L39.019,0.876 C23.212,0.876 9.235,8.725 0.778,20.733" id="path-154"></path>
        <linearGradient x1="50.0003907%" y1="-3.52350204%" x2="50.0003907%" y2="98.9511925%" id="linearGradient-156">
            <stop stop-color="#E6E7E7" offset="0%"></stop>
            <stop stop-color="#E4E5E6" offset="100%"></stop>
        </linearGradient>
        <path d="M0.899,20.733 L77.139,20.733 C68.697,8.782 54.768,0.973 39.019,0.973 L39.019,0.973 C23.269,0.973 9.342,8.782 0.899,20.733" id="path-157"></path>
        <linearGradient x1="49.999406%" y1="-3.51751619%" x2="49.999406%" y2="98.9536407%" id="linearGradient-159">
            <stop stop-color="#E6E7E7" offset="0%"></stop>
            <stop stop-color="#E4E5E6" offset="100%"></stop>
        </linearGradient>
        <path d="M0.02,19.733 L76.018,19.733 C67.59,7.841 53.711,0.071 38.019,0.071 L38.019,0.071 C22.328,0.071 8.448,7.841 0.02,19.733" id="path-160"></path>
        <linearGradient x1="49.9997353%" y1="-3.52694029%" x2="49.9997353%" y2="98.9514424%" id="linearGradient-162">
            <stop stop-color="#E6E7E7" offset="0%"></stop>
            <stop stop-color="#E4E5E6" offset="100%"></stop>
        </linearGradient>
        <path d="M0.141,19.733 L75.897,19.733 C67.484,7.897 53.652,0.168 38.019,0.168 L38.019,0.168 C22.385,0.168 8.554,7.897 0.141,19.733" id="path-163"></path>
        <linearGradient x1="49.9997344%" y1="-3.52091183%" x2="49.9997344%" y2="98.9539162%" id="linearGradient-165">
            <stop stop-color="#E6E7E7" offset="0%"></stop>
            <stop stop-color="#E4E5E6" offset="100%"></stop>
        </linearGradient>
        <path d="M0.261,19.733 L75.776,19.733 C67.377,7.954 53.594,0.266 38.019,0.266 L38.019,0.266 C22.444,0.266 8.66,7.954 0.261,19.733" id="path-166"></path>
        <linearGradient x1="50.0003957%" y1="-3.52068937%" x2="50.0003957%" y2="98.9558119%" id="linearGradient-168">
            <stop stop-color="#E6E7E7" offset="0%"></stop>
            <stop stop-color="#E4E5E6" offset="100%"></stop>
        </linearGradient>
        <path d="M0.382,19.733 L75.655,19.733 C67.272,8.011 53.537,0.363 38.019,0.363 L38.019,0.363 C22.501,0.363 8.766,8.011 0.382,19.733" id="path-169"></path>
        <linearGradient x1="50.0000626%" y1="-3.52484874%" x2="50.0000626%" y2="98.9480521%" id="linearGradient-171">
            <stop stop-color="#E6E7E7" offset="0%"></stop>
            <stop stop-color="#E4E5E6" offset="100%"></stop>
        </linearGradient>
        <path d="M0.503,19.733 L75.535,19.733 C67.165,8.067 53.478,0.462 38.019,0.462 L38.019,0.462 C22.559,0.462 8.873,8.067 0.503,19.733" id="path-172"></path>
        <linearGradient x1="49.9997318%" y1="-3.52946137%" x2="49.9997318%" y2="98.9509522%" id="linearGradient-174">
            <stop stop-color="#E6E7E7" offset="0%"></stop>
            <stop stop-color="#E4E5E6" offset="100%"></stop>
        </linearGradient>
        <path d="M0.623,19.733 L75.414,19.733 C67.059,8.123 53.421,0.557 38.019,0.557 L38.019,0.557 C22.617,0.557 8.98,8.123 0.623,19.733" id="path-175"></path>
        <linearGradient x1="50.0003332%" y1="-3.52294952%" x2="50.0003332%" y2="98.9483709%" id="linearGradient-177">
            <stop stop-color="#E6E7E7" offset="0%"></stop>
            <stop stop-color="#E4E5E6" offset="100%"></stop>
        </linearGradient>
        <path d="M0.744,19.733 L75.294,19.733 C66.952,8.18 53.363,0.655 38.019,0.655 L38.019,0.655 C22.675,0.655 9.085,8.18 0.744,19.733" id="path-178"></path>
        <linearGradient x1="49.9996636%" y1="-3.52221302%" x2="49.9996636%" y2="98.9507973%" id="linearGradient-180">
            <stop stop-color="#E6E7E7" offset="0%"></stop>
            <stop stop-color="#E4E5E6" offset="100%"></stop>
        </linearGradient>
        <path d="M0.864,19.733 L75.173,19.733 C66.846,8.237 53.306,0.752 38.019,0.752 L38.019,0.752 C22.733,0.752 9.192,8.237 0.864,19.733" id="path-181"></path>
        <linearGradient x1="50.0003354%" y1="-3.51649702%" x2="50.0003354%" y2="98.9528112%" id="linearGradient-183">
            <stop stop-color="#E6E7E7" offset="0%"></stop>
            <stop stop-color="#E4E5E6" offset="100%"></stop>
        </linearGradient>
        <path d="M0.986,19.733 L75.051,19.733 C66.74,8.293 53.247,0.85 38.019,0.85 L38.019,0.85 C22.79,0.85 9.298,8.293 0.986,19.733" id="path-184"></path>
        <linearGradient x1="50.0003365%" y1="-3.51567918%" x2="50.0003365%" y2="98.9558608%" id="linearGradient-186">
            <stop stop-color="#E6E7E7" offset="0%"></stop>
            <stop stop-color="#E3E4E5" offset="100%"></stop>
        </linearGradient>
        <path d="M0.107,19.733 L73.931,19.733 C65.634,8.35 52.189,0.948 37.019,0.948 L37.019,0.948 C21.848,0.948 8.404,8.35 0.107,19.733" id="path-187"></path>
        <linearGradient x1="49.9996603%" y1="-3.52549321%" x2="49.9996603%" y2="98.9477541%" id="linearGradient-189">
            <stop stop-color="#E6E7E7" offset="0%"></stop>
            <stop stop-color="#E3E4E5" offset="100%"></stop>
        </linearGradient>
        <path d="M0.227,18.733 L73.81,18.733 C65.527,7.407 52.131,0.046 37.019,0.046 L37.019,0.046 C21.906,0.046 8.511,7.407 0.227,18.733" id="path-190"></path>
        <linearGradient x1="50.0003387%" y1="-3.52471397%" x2="50.0003387%" y2="98.9502681%" id="linearGradient-192">
            <stop stop-color="#E6E7E7" offset="0%"></stop>
            <stop stop-color="#E3E4E5" offset="100%"></stop>
        </linearGradient>
        <path d="M0.348,18.733 L73.69,18.733 C65.421,7.465 52.073,0.143 37.019,0.143 L37.019,0.143 C21.964,0.143 8.617,7.465 0.348,18.733" id="path-193"></path>
        <linearGradient x1="49.999658%" y1="-3.52910974%" x2="49.999658%" y2="98.9474895%" id="linearGradient-195">
            <stop stop-color="#E6E7E7" offset="0%"></stop>
            <stop stop-color="#E3E4E5" offset="100%"></stop>
        </linearGradient>
        <path d="M0.468,18.733 L73.569,18.733 C65.314,7.522 52.016,0.241 37.019,0.241 L37.019,0.241 C22.022,0.241 8.724,7.522 0.468,18.733" id="path-196"></path>
        <linearGradient x1="50.0006802%" y1="-3.52834144%" x2="50.0006802%" y2="98.9505651%" id="linearGradient-198">
            <stop stop-color="#E6E7E7" offset="0%"></stop>
            <stop stop-color="#E3E4E5" offset="100%"></stop>
        </linearGradient>
        <path d="M0.589,18.733 L73.448,18.733 C65.209,7.579 51.957,0.338 37.019,0.338 L37.019,0.338 C22.08,0.338 8.829,7.579 0.589,18.733" id="path-199"></path>
        <linearGradient x1="50.000342%" y1="-3.52251699%" x2="50.000342%" y2="98.952611%" id="linearGradient-201">
            <stop stop-color="#E6E7E7" offset="0%"></stop>
            <stop stop-color="#E3E4E5" offset="100%"></stop>
        </linearGradient>
        <path d="M0.71,18.733 L73.328,18.733 C65.102,7.635 51.9,0.436 37.019,0.436 L37.019,0.436 C22.138,0.436 8.936,7.635 0.71,18.733" id="path-202"></path>
        <linearGradient x1="49.9996546%" y1="-3.5217052%" x2="49.9996546%" y2="98.9552052%" id="linearGradient-204">
            <stop stop-color="#E6E7E7" offset="0%"></stop>
            <stop stop-color="#E3E4E5" offset="100%"></stop>
        </linearGradient>
        <path d="M0.831,18.733 L73.207,18.733 C64.996,7.692 51.842,0.533 37.019,0.533 L37.019,0.533 C22.195,0.533 9.043,7.692 0.831,18.733" id="path-205"></path>
        <linearGradient x1="49.999722%" y1="-3.51574121%" x2="49.999722%" y2="98.9573396%" id="linearGradient-207">
            <stop stop-color="#E6E7E7" offset="0%"></stop>
            <stop stop-color="#E3E4E5" offset="100%"></stop>
        </linearGradient>
        <path d="M0.952,18.733 L73.087,18.733 C64.889,7.749 51.785,0.63 37.019,0.63 L37.019,0.63 C22.254,0.63 9.149,7.749 0.952,18.733" id="path-208"></path>
        <linearGradient x1="49.999303%" y1="-3.5202077%" x2="49.999303%" y2="98.9550715%" id="linearGradient-210">
            <stop stop-color="#E6E7E7" offset="0%"></stop>
            <stop stop-color="#E3E4E5" offset="100%"></stop>
        </linearGradient>
        <path d="M0.072,18.733 L71.965,18.733 C63.783,7.805 50.726,0.727 36.019,0.727 L36.019,0.727 C21.311,0.727 8.255,7.805 0.072,18.733" id="path-211"></path>
        <linearGradient x1="50.0003466%" y1="-3.51362046%" x2="50.0003466%" y2="98.9577791%" id="linearGradient-213">
            <stop stop-color="#E6E7E7" offset="0%"></stop>
            <stop stop-color="#E3E4E5" offset="100%"></stop>
        </linearGradient>
        <path d="M0.193,18.733 L71.844,18.733 C63.677,7.862 50.668,0.825 36.019,0.825 L36.019,0.825 C21.369,0.825 8.361,7.862 0.193,18.733" id="path-214"></path>
        <linearGradient x1="50.000417%" y1="-3.5239044%" x2="50.000417%" y2="98.9492958%" id="linearGradient-216">
            <stop stop-color="#E6E7E7" offset="0%"></stop>
            <stop stop-color="#E2E3E4" offset="100%"></stop>
        </linearGradient>
        <path d="M0.313,18.733 L71.724,18.733 C63.571,7.919 50.61,0.922 36.019,0.922 L36.019,0.922 C21.427,0.922 8.467,7.919 0.313,18.733" id="path-217"></path>
        <linearGradient x1="50.0004184%" y1="-3.5173084%" x2="50.0004184%" y2="98.9519477%" id="linearGradient-219">
            <stop stop-color="#E6E7E7" offset="0%"></stop>
            <stop stop-color="#E2E3E4" offset="100%"></stop>
        </linearGradient>
        <path d="M0.435,17.733 L71.603,17.733 C63.465,6.976 50.552,0.02 36.019,0.02 L36.019,0.02 C21.485,0.02 8.574,6.976 0.435,17.733" id="path-220"></path>
        <linearGradient x1="50.0000658%" y1="-3.51700051%" x2="50.0000658%" y2="98.9540637%" id="linearGradient-222">
            <stop stop-color="#E6E7E7" offset="0%"></stop>
            <stop stop-color="#E2E3E4" offset="100%"></stop>
        </linearGradient>
        <path d="M0.555,17.733 L71.483,17.733 C63.357,7.034 50.495,0.118 36.019,0.118 L36.019,0.118 C21.543,0.118 8.68,7.034 0.555,17.733" id="path-223"></path>
        <linearGradient x1="50.000066%" y1="-3.52691116%" x2="50.000066%" y2="98.9522293%" id="linearGradient-225">
            <stop stop-color="#E6E7E7" offset="0%"></stop>
            <stop stop-color="#E2E3E4" offset="100%"></stop>
        </linearGradient>
        <path d="M0.676,17.733 L71.362,17.733 C63.252,7.091 50.436,0.216 36.019,0.216 L36.019,0.216 C21.6,0.216 8.786,7.091 0.676,17.733" id="path-226"></path>
        <linearGradient x1="49.9997154%" y1="-3.52665354%" x2="49.9997154%" y2="98.9543598%" id="linearGradient-228">
            <stop stop-color="#E6E7E7" offset="0%"></stop>
            <stop stop-color="#E2E3E4" offset="100%"></stop>
        </linearGradient>
        <path d="M0.797,17.733 L71.242,17.733 C63.145,7.147 50.379,0.313 36.019,0.313 L36.019,0.313 C21.659,0.313 8.892,7.147 0.797,17.733" id="path-229"></path>
        <linearGradient x1="49.9990046%" y1="-3.51988117%" x2="49.9990046%" y2="98.9571544%" id="linearGradient-231">
            <stop stop-color="#E6E7E7" offset="0%"></stop>
            <stop stop-color="#E2E3E4" offset="100%"></stop>
        </linearGradient>
        <path d="M0.917,17.733 L71.121,17.733 C63.039,7.204 50.321,0.411 36.019,0.411 L36.019,0.411 C21.716,0.411 8.999,7.204 0.917,17.733" id="path-232"></path>
        <linearGradient x1="50.0000667%" y1="-3.53054786%" x2="50.0000667%" y2="98.9483807%" id="linearGradient-234">
            <stop stop-color="#E6E7E7" offset="0%"></stop>
            <stop stop-color="#E2E3E4" offset="100%"></stop>
        </linearGradient>
        <path d="M0.038,17.733 L70,17.733 C61.933,7.26 49.263,0.508 35.019,0.508 L35.019,0.508 C20.775,0.508 8.105,7.26 0.038,17.733" id="path-235"></path>
        <linearGradient x1="50.0000669%" y1="-3.52372075%" x2="50.0000669%" y2="98.9517486%" id="linearGradient-237">
            <stop stop-color="#E6E7E7" offset="0%"></stop>
            <stop stop-color="#E2E3E4" offset="100%"></stop>
        </linearGradient>
        <path d="M0.158,17.733 L69.88,17.733 C61.827,7.317 49.205,0.604 35.019,0.604 L35.019,0.604 C20.832,0.604 8.212,7.317 0.158,17.733" id="path-238"></path>
        <linearGradient x1="50.0000671%" y1="-3.52248701%" x2="50.0000671%" y2="98.9487577%" id="linearGradient-240">
            <stop stop-color="#E6E7E7" offset="0%"></stop>
            <stop stop-color="#E2E3E4" offset="100%"></stop>
        </linearGradient>
        <path d="M0.279,17.733 L69.758,17.733 C61.72,7.373 49.147,0.702 35.019,0.702 L35.019,0.702 C20.89,0.702 8.318,7.373 0.279,17.733" id="path-241"></path>
        <linearGradient x1="50.0004301%" y1="-3.52219658%" x2="50.0004301%" y2="98.9509401%" id="linearGradient-243">
            <stop stop-color="#E6E7E7" offset="0%"></stop>
            <stop stop-color="#E2E3E4" offset="100%"></stop>
        </linearGradient>
        <path d="M0.401,17.733 L69.638,17.733 C61.614,7.43 49.09,0.8 35.019,0.8 L35.019,0.8 C20.948,0.8 8.424,7.43 0.401,17.733" id="path-244"></path>
        <linearGradient x1="49.9993454%" y1="-3.52131696%" x2="49.9993454%" y2="98.9537341%" id="linearGradient-246">
            <stop stop-color="#E6E7E7" offset="0%"></stop>
            <stop stop-color="#E2E3E4" offset="100%"></stop>
        </linearGradient>
        <path d="M0.521,17.733 L69.517,17.733 C61.508,7.487 49.031,0.897 35.019,0.897 L35.019,0.897 C21.006,0.897 8.53,7.487 0.521,17.733" id="path-247"></path>
        <linearGradient x1="50.0000678%" y1="-3.51486814%" x2="50.0000678%" y2="98.9566215%" id="linearGradient-249">
            <stop stop-color="#E6E7E7" offset="0%"></stop>
            <stop stop-color="#E2E3E4" offset="100%"></stop>
        </linearGradient>
        <path d="M0.642,16.733 L69.396,16.733 C61.402,6.544 48.974,-0.005 35.019,-0.005 L35.019,-0.005 C21.064,-0.005 8.637,6.544 0.642,16.733" id="path-250"></path>
        <linearGradient x1="50.0000681%" y1="-3.52528558%" x2="50.0000681%" y2="98.9481306%" id="linearGradient-252">
            <stop stop-color="#E6E7E7" offset="0%"></stop>
            <stop stop-color="#E2E3E4" offset="100%"></stop>
        </linearGradient>
        <path d="M0.762,16.733 L69.276,16.733 C61.295,6.602 48.915,0.092 35.019,0.092 L35.019,0.092 C21.121,0.092 8.743,6.602 0.762,16.733" id="path-253"></path>
        <linearGradient x1="49.9997063%" y1="-3.51878373%" x2="49.9997063%" y2="98.9564299%" id="linearGradient-255">
            <stop stop-color="#E6E7E7" offset="0%"></stop>
            <stop stop-color="#E2E3E4" offset="100%"></stop>
        </linearGradient>
        <path d="M0.883,16.733 L69.155,16.733 C61.189,6.659 48.857,0.19 35.019,0.19 L35.019,0.19 C21.179,0.19 8.849,6.659 0.883,16.733" id="path-256"></path>
        <linearGradient x1="50.0000741%" y1="-3.52999275%" x2="50.0000741%" y2="98.9471928%" id="linearGradient-258">
            <stop stop-color="#E6E7E7" offset="0%"></stop>
            <stop stop-color="#E2E3E4" offset="100%"></stop>
        </linearGradient>
    </defs>
    <g id="Page-1" stroke="none" stroke-width="1" fill="none" fill-rule="evenodd">
        <g id="Desktop-HD" transform="translate(-256.000000, -190.000000)">
            <g id="Group-538" filter="url(#filter-1)" transform="translate(256.000000, 190.000000)">
                <path d="M53.019,106.4126 C82.059,106.4126 105.742,82.7286 105.742,53.6876 C105.742,24.6486 82.059,0.9656 53.019,0.9656 C23.979,0.9656 0.296,24.6486 0.296,53.6876 C0.296,82.7286 23.979,106.4126 53.019,106.4126" id="Fill-212" fill="#434244"></path>
                <g id="Group-216" transform="translate(2.000000, 1.994000)">
                    <mask id="mask-3" fill="white">
                        <use xlink:href="#path-2"></use>
                    </mask>
                    <g id="Clip-215"></g>
                    <path d="M0.27,51.694 C0.27,79.645 23.067,102.444 51.019,102.444 L51.019,102.444 C78.97,102.444 101.767,79.645 101.767,51.694 L101.767,51.694 C101.767,23.742 78.97,0.946 51.019,0.946 L51.019,0.946 C23.067,0.946 0.27,23.742 0.27,51.694" id="Fill-214" mask="url(#mask-3)"></path>
                </g>
                <g id="Group-219" transform="translate(4.000000, 4.994000)">
                    <mask id="mask-5" fill="white">
                        <use xlink:href="#path-4"></use>
                    </mask>
                    <g id="Clip-218"></g>
                    <path d="M0.639,48.694 C0.639,75.341 22.373,97.073 49.019,97.073 L49.019,97.073 C75.665,97.073 97.398,75.341 97.398,48.694 L97.398,48.694 C97.398,22.047 75.665,0.317 49.019,0.317 L49.019,0.317 C22.373,0.317 0.639,22.047 0.639,48.694" id="Fill-217" fill="url(#linearGradient-6)" mask="url(#mask-5)"></path>
                </g>
                <g id="Group-222" transform="translate(4.000000, 4.994000)">
                    <mask id="mask-8" fill="white">
                        <use xlink:href="#path-7"></use>
                    </mask>
                    <g id="Clip-221"></g>
                    <path d="M0.693,48.714 C0.693,75.319 22.401,97.015 49.019,97.015 L49.019,97.015 C75.637,97.015 97.344,75.319 97.344,48.714 L97.344,48.714 C97.344,22.11 75.637,0.415 49.019,0.415 L49.019,0.415 C22.401,0.415 0.693,22.11 0.693,48.714" id="Fill-220" mask="url(#mask-8)"></path>
                </g>
                <g id="Group-225" transform="translate(4.000000, 4.994000)">
                    <mask id="mask-10" fill="white">
                        <use xlink:href="#path-9"></use>
                    </mask>
                    <g id="Clip-224"></g>
                    <path d="M0.747,48.733 C0.747,75.296 22.43,96.955 49.019,96.955 L49.019,96.955 C75.609,96.955 97.29,75.296 97.29,48.733 L97.29,48.733 C97.29,22.171 75.609,0.512 49.019,0.512 L49.019,0.512 C22.43,0.512 0.747,22.171 0.747,48.733" id="Fill-223" mask="url(#mask-10)"></path>
                </g>
                <g id="Group-228" transform="translate(4.000000, 4.994000)">
                    <mask id="mask-12" fill="white">
                        <use xlink:href="#path-11"></use>
                    </mask>
                    <g id="Clip-227"></g>
                    <path d="M0.801,48.752 C0.801,75.274 22.457,96.897 49.019,96.897 L49.019,96.897 C75.581,96.897 97.237,75.274 97.237,48.752 L97.237,48.752 C97.237,22.231 75.581,0.608 49.019,0.608 L49.019,0.608 C22.457,0.608 0.801,22.231 0.801,48.752" id="Fill-226" mask="url(#mask-12)"></path>
                </g>
                <g id="Group-231" transform="translate(4.000000, 4.994000)">
                    <mask id="mask-14" fill="white">
                        <use xlink:href="#path-13"></use>
                    </mask>
                    <g id="Clip-230"></g>
                    <path d="M0.854,48.772 C0.854,75.251 22.486,96.838 49.019,96.838 L49.019,96.838 C75.552,96.838 97.184,75.251 97.184,48.772 L97.184,48.772 C97.184,22.294 75.552,0.706 49.019,0.706 L49.019,0.706 C22.486,0.706 0.854,22.294 0.854,48.772" id="Fill-229" mask="url(#mask-14)"></path>
                </g>
                <g id="Group-234" transform="translate(4.000000, 4.994000)">
                    <mask id="mask-16" fill="white">
                        <use xlink:href="#path-15"></use>
                    </mask>
                    <g id="Clip-233"></g>
                    <path d="M0.907,48.792 C0.907,75.229 22.514,96.78 49.019,96.78 L49.019,96.78 C75.524,96.78 97.13,75.229 97.13,48.792 L97.13,48.792 C97.13,22.354 75.524,0.804 49.019,0.804 L49.019,0.804 C22.514,0.804 0.907,22.354 0.907,48.792" id="Fill-232" mask="url(#mask-16)"></path>
                </g>
                <g id="Group-237" transform="translate(4.000000, 4.994000)">
                    <mask id="mask-18" fill="white">
                        <use xlink:href="#path-17"></use>
                    </mask>
                    <g id="Clip-236"></g>
                    <path d="M0.961,48.812 C0.961,75.208 22.543,96.721 49.019,96.721 L49.019,96.721 C75.495,96.721 97.076,75.208 97.076,48.812 L97.076,48.812 C97.076,22.415 75.495,0.901 49.019,0.901 L49.019,0.901 C22.543,0.901 0.961,22.415 0.961,48.812" id="Fill-235" mask="url(#mask-18)"></path>
                </g>
                <g id="Group-240" transform="translate(5.000000, 5.994000)">
                    <mask id="mask-20" fill="white">
                        <use xlink:href="#path-19"></use>
                    </mask>
                    <g id="Clip-239"></g>
                    <path d="M0.015,47.831 C0.015,74.184 21.57,95.663 48.019,95.663 L48.019,95.663 C74.467,95.663 96.022,74.184 96.022,47.831 L96.022,47.831 C96.022,21.478 74.467,-0.001 48.019,-0.001 L48.019,-0.001 C21.57,-0.001 0.015,21.478 0.015,47.831" id="Fill-238" mask="url(#mask-20)"></path>
                </g>
                <g id="Group-243" transform="translate(5.000000, 5.994000)">
                    <mask id="mask-22" fill="white">
                        <use xlink:href="#path-21"></use>
                    </mask>
                    <g id="Clip-242"></g>
                    <path d="M0.068,47.85 C0.068,74.163 21.599,95.604 48.019,95.604 L48.019,95.604 C74.439,95.604 95.968,74.163 95.968,47.85 L95.968,47.85 C95.968,21.538 74.439,0.096 48.019,0.096 L48.019,0.096 C21.599,0.096 0.068,21.538 0.068,47.85" id="Fill-241" mask="url(#mask-22)"></path>
                </g>
                <g id="Group-246" transform="translate(5.000000, 5.994000)">
                    <mask id="mask-24" fill="white">
                        <use xlink:href="#path-23"></use>
                    </mask>
                    <g id="Clip-245"></g>
                    <path d="M0.122,47.87 C0.122,74.139 21.627,95.546 48.019,95.546 L48.019,95.546 C74.411,95.546 95.915,74.139 95.915,47.87 L95.915,47.87 C95.915,21.598 74.411,0.194 48.019,0.194 L48.019,0.194 C21.627,0.194 0.122,21.598 0.122,47.87" id="Fill-244" mask="url(#mask-24)"></path>
                </g>
                <g id="Group-249" transform="translate(5.000000, 5.994000)">
                    <mask id="mask-26" fill="white">
                        <use xlink:href="#path-25"></use>
                    </mask>
                    <g id="Clip-248"></g>
                    <path d="M0.176,47.889 C0.176,74.118 21.655,95.487 48.019,95.487 L48.019,95.487 C74.383,95.487 95.861,74.118 95.861,47.889 L95.861,47.889 C95.861,21.658 74.383,0.292 48.019,0.292 L48.019,0.292 C21.655,0.292 0.176,21.658 0.176,47.889" id="Fill-247" mask="url(#mask-26)"></path>
                </g>
                <g id="Group-252" transform="translate(5.000000, 5.994000)">
                    <mask id="mask-28" fill="white">
                        <use xlink:href="#path-27"></use>
                    </mask>
                    <g id="Clip-251"></g>
                    <path d="M0.229,47.909 C0.229,74.094 21.683,95.429 48.019,95.429 L48.019,95.429 C74.355,95.429 95.807,74.094 95.807,47.909 L95.807,47.909 C95.807,21.721 74.355,0.39 48.019,0.39 L48.019,0.39 C21.683,0.39 0.229,21.721 0.229,47.909" id="Fill-250" mask="url(#mask-28)"></path>
                </g>
                <g id="Group-255" transform="translate(5.000000, 5.994000)">
                    <mask id="mask-30" fill="white">
                        <use xlink:href="#path-29"></use>
                    </mask>
                    <g id="Clip-254"></g>
                    <path d="M0.283,47.929 C0.283,74.073 21.712,95.369 48.019,95.369 L48.019,95.369 C74.326,95.369 95.754,74.073 95.754,47.929 L95.754,47.929 C95.754,21.782 74.326,0.487 48.019,0.487 L48.019,0.487 C21.712,0.487 0.283,21.782 0.283,47.929" id="Fill-253" mask="url(#mask-30)"></path>
                </g>
                <g id="Group-258" transform="translate(5.000000, 5.994000)">
                    <mask id="mask-32" fill="white">
                        <use xlink:href="#path-31"></use>
                    </mask>
                    <g id="Clip-257"></g>
                    <path d="M0.336,47.946 C0.336,74.049 21.74,95.311 48.019,95.311 L48.019,95.311 C74.298,95.311 95.7,74.049 95.7,47.946 L95.7,47.946 C95.7,21.842 74.298,0.582 48.019,0.582 L48.019,0.582 C21.74,0.582 0.336,21.842 0.336,47.946" id="Fill-256" mask="url(#mask-32)"></path>
                </g>
                <g id="Group-261" transform="translate(5.000000, 5.994000)">
                    <mask id="mask-34" fill="white">
                        <use xlink:href="#path-33"></use>
                    </mask>
                    <g id="Clip-260"></g>
                    <path d="M0.39,47.965 C0.39,74.028 21.769,95.252 48.019,95.252 L48.019,95.252 C74.269,95.252 95.646,74.028 95.646,47.965 L95.646,47.965 C95.646,21.905 74.269,0.68 48.019,0.68 L48.019,0.68 C21.769,0.68 0.39,21.905 0.39,47.965" id="Fill-259" mask="url(#mask-34)"></path>
                </g>
                <g id="Group-264" transform="translate(5.000000, 5.994000)">
                    <mask id="mask-36" fill="white">
                        <use xlink:href="#path-35"></use>
                    </mask>
                    <g id="Clip-263"></g>
                    <path d="M0.444,47.985 C0.444,74.004 21.797,95.194 48.019,95.194 L48.019,95.194 C74.242,95.194 95.593,74.004 95.593,47.985 L95.593,47.985 C95.593,21.965 74.242,0.778 48.019,0.778 L48.019,0.778 C21.797,0.778 0.444,21.965 0.444,47.985" id="Fill-262" mask="url(#mask-36)"></path>
                </g>
                <g id="Group-267" transform="translate(5.000000, 5.994000)">
                    <mask id="mask-38" fill="white">
                        <use xlink:href="#path-37"></use>
                    </mask>
                    <g id="Clip-266"></g>
                    <path d="M0.497,48.004 C0.497,73.983 21.826,95.135 48.019,95.135 L48.019,95.135 C74.213,95.135 95.539,73.983 95.539,48.004 L95.539,48.004 C95.539,22.026 74.213,0.876 48.019,0.876 L48.019,0.876 C21.826,0.876 0.497,22.026 0.497,48.004" id="Fill-265" mask="url(#mask-38)"></path>
                </g>
                <g id="Group-270" transform="translate(5.000000, 5.994000)">
                    <mask id="mask-40" fill="white">
                        <use xlink:href="#path-39"></use>
                    </mask>
                    <g id="Clip-269"></g>
                    <path d="M0.551,48.024 C0.551,73.962 21.853,95.077 48.019,95.077 L48.019,95.077 C74.185,95.077 95.486,73.962 95.486,48.024 L95.486,48.024 C95.486,22.089 74.185,0.973 48.019,0.973 L48.019,0.973 C21.853,0.973 0.551,22.089 0.551,48.024" id="Fill-268" mask="url(#mask-40)"></path>
                </g>
                <g id="Group-273" transform="translate(5.000000, 6.994000)">
                    <mask id="mask-42" fill="white">
                        <use xlink:href="#path-41"></use>
                    </mask>
                    <g id="Clip-272"></g>
                    <path d="M0.605,47.044 C0.605,72.939 21.882,94.018 48.019,94.018 L48.019,94.018 C74.156,94.018 95.432,72.939 95.432,47.044 L95.432,47.044 C95.432,21.149 74.156,0.071 48.019,0.071 L48.019,0.071 C21.882,0.071 0.605,21.149 0.605,47.044" id="Fill-271" mask="url(#mask-42)"></path>
                </g>
                <g id="Group-276" transform="translate(5.000000, 6.994000)">
                    <mask id="mask-44" fill="white">
                        <use xlink:href="#path-43"></use>
                    </mask>
                    <g id="Clip-275"></g>
                    <path d="M0.658,47.063 C0.658,72.917 21.91,93.96 48.019,93.96 L48.019,93.96 C74.128,93.96 95.378,72.917 95.378,47.063 L95.378,47.063 C95.378,21.209 74.128,0.168 48.019,0.168 L48.019,0.168 C21.91,0.168 0.658,21.209 0.658,47.063" id="Fill-274" mask="url(#mask-44)"></path>
                </g>
                <g id="Group-279" transform="translate(5.000000, 6.994000)">
                    <mask id="mask-46" fill="white">
                        <use xlink:href="#path-45"></use>
                    </mask>
                    <g id="Clip-278"></g>
                    <path d="M0.712,47.083 C0.712,72.894 21.938,93.899 48.019,93.899 L48.019,93.899 C74.099,93.899 95.325,72.894 95.325,47.083 L95.325,47.083 C95.325,21.272 74.099,0.266 48.019,0.266 L48.019,0.266 C21.938,0.266 0.712,21.272 0.712,47.083" id="Fill-277" mask="url(#mask-46)"></path>
                </g>
                <g id="Group-282" transform="translate(5.000000, 6.994000)">
                    <mask id="mask-48" fill="white">
                        <use xlink:href="#path-47"></use>
                    </mask>
                    <g id="Clip-281"></g>
                    <path d="M0.766,47.102 C0.766,72.872 21.966,93.84 48.019,93.84 L48.019,93.84 C74.071,93.84 95.272,72.872 95.272,47.102 L95.272,47.102 C95.272,21.333 74.071,0.363 48.019,0.363 L48.019,0.363 C21.966,0.363 0.766,21.333 0.766,47.102" id="Fill-280" mask="url(#mask-48)"></path>
                </g>
                <g id="Group-285" transform="translate(5.000000, 6.994000)">
                    <mask id="mask-50" fill="white">
                        <use xlink:href="#path-49"></use>
                    </mask>
                    <g id="Clip-284"></g>
                    <path d="M0.82,47.122 C0.82,72.849 21.995,93.782 48.019,93.782 L48.019,93.782 C74.043,93.782 95.218,72.849 95.218,47.122 L95.218,47.122 C95.218,21.393 74.043,0.462 48.019,0.462 L48.019,0.462 C21.995,0.462 0.82,21.393 0.82,47.122" id="Fill-283" mask="url(#mask-50)"></path>
                </g>
                <g id="Group-288" transform="translate(5.000000, 6.994000)">
                    <mask id="mask-52" fill="white">
                        <use xlink:href="#path-51"></use>
                    </mask>
                    <g id="Clip-287"></g>
                    <path d="M0.873,47.141 C0.873,72.827 22.023,93.723 48.019,93.723 L48.019,93.723 C74.015,93.723 95.164,72.827 95.164,47.141 L95.164,47.141 C95.164,21.456 74.015,0.557 48.019,0.557 L48.019,0.557 C22.023,0.557 0.873,21.456 0.873,47.141" id="Fill-286" mask="url(#mask-52)"></path>
                </g>
                <g id="Group-291" transform="translate(5.000000, 6.994000)">
                    <mask id="mask-54" fill="white">
                        <use xlink:href="#path-53"></use>
                    </mask>
                    <g id="Clip-290"></g>
                    <path d="M0.927,47.161 C0.927,72.804 22.051,93.665 48.019,93.665 L48.019,93.665 C73.986,93.665 95.111,72.804 95.111,47.161 L95.111,47.161 C95.111,21.516 73.986,0.655 48.019,0.655 L48.019,0.655 C22.051,0.655 0.927,21.516 0.927,47.161" id="Fill-289" mask="url(#mask-54)"></path>
                </g>
                <g id="Group-294" transform="translate(5.000000, 6.994000)">
                    <mask id="mask-56" fill="white">
                        <use xlink:href="#path-55"></use>
                    </mask>
                    <g id="Clip-293"></g>
                    <path d="M0.981,47.181 C0.981,72.782 22.079,93.606 48.019,93.606 L48.019,93.606 C73.958,93.606 95.057,72.782 95.057,47.181 L95.057,47.181 C95.057,21.576 73.958,0.752 48.019,0.752 L48.019,0.752 C22.079,0.752 0.981,21.576 0.981,47.181" id="Fill-292" mask="url(#mask-56)"></path>
                </g>
                <g id="Group-297" transform="translate(6.000000, 6.994000)">
                    <mask id="mask-58" fill="white">
                        <use xlink:href="#path-57"></use>
                    </mask>
                    <g id="Clip-296"></g>
                    <path d="M0.035,47.199 C0.035,72.76 21.108,93.548 47.019,93.548 L47.019,93.548 C72.93,93.548 94.004,72.76 94.004,47.199 L94.004,47.199 C94.004,21.639 72.93,0.85 47.019,0.85 L47.019,0.85 C21.108,0.85 0.035,21.639 0.035,47.199" id="Fill-295" mask="url(#mask-58)"></path>
                </g>
                <g id="Group-300" transform="translate(6.000000, 6.994000)">
                    <mask id="mask-60" fill="white">
                        <use xlink:href="#path-59"></use>
                    </mask>
                    <g id="Clip-299"></g>
                    <path d="M0.088,47.219 C0.088,72.737 21.136,93.489 47.019,93.489 L47.019,93.489 C72.902,93.489 93.95,72.737 93.95,47.219 L93.95,47.219 C93.95,21.7 72.902,0.948 47.019,0.948 L47.019,0.948 C21.136,0.948 0.088,21.7 0.088,47.219" id="Fill-298" mask="url(#mask-60)"></path>
                </g>
                <g id="Group-303" transform="translate(6.000000, 7.994000)">
                    <mask id="mask-62" fill="white">
                        <use xlink:href="#path-61"></use>
                    </mask>
                    <g id="Clip-302"></g>
                    <path d="M0.142,46.239 C0.142,71.715 21.165,92.431 47.019,92.431 L47.019,92.431 C72.873,92.431 93.896,71.715 93.896,46.239 L93.896,46.239 C93.896,20.76 72.873,0.046 47.019,0.046 L47.019,0.046 C21.165,0.046 0.142,20.76 0.142,46.239" id="Fill-301" mask="url(#mask-62)"></path>
                </g>
                <g id="Group-306" transform="translate(6.000000, 7.994000)">
                    <mask id="mask-64" fill="white">
                        <use xlink:href="#path-63"></use>
                    </mask>
                    <g id="Clip-305"></g>
                    <path d="M0.196,46.259 C0.196,71.692 21.193,92.372 47.019,92.372 L47.019,92.372 C72.846,92.372 93.842,71.692 93.842,46.259 L93.842,46.259 C93.842,20.823 72.846,0.143 47.019,0.143 L47.019,0.143 C21.193,0.143 0.196,20.823 0.196,46.259" id="Fill-304" mask="url(#mask-64)"></path>
                </g>
                <g id="Group-309" transform="translate(6.000000, 7.994000)">
                    <mask id="mask-66" fill="white">
                        <use xlink:href="#path-65"></use>
                    </mask>
                    <g id="Clip-308"></g>
                    <path d="M0.249,46.276 C0.249,71.67 21.221,92.313 47.019,92.313 L47.019,92.313 C72.817,92.313 93.788,71.67 93.788,46.276 L93.788,46.276 C93.788,20.883 72.817,0.241 47.019,0.241 L47.019,0.241 C21.221,0.241 0.249,20.883 0.249,46.276" id="Fill-307" mask="url(#mask-66)"></path>
                </g>
                <g id="Group-312" transform="translate(6.000000, 7.994000)">
                    <mask id="mask-68" fill="white">
                        <use xlink:href="#path-67"></use>
                    </mask>
                    <g id="Clip-311"></g>
                    <path d="M0.302,46.296 C0.302,71.647 21.249,92.254 47.019,92.254 L47.019,92.254 C72.789,92.254 93.734,71.647 93.734,46.296 L93.734,46.296 C93.734,20.944 72.789,0.338 47.019,0.338 L47.019,0.338 C21.249,0.338 0.302,20.944 0.302,46.296" id="Fill-310" mask="url(#mask-68)"></path>
                </g>
                <g id="Group-315" transform="translate(6.000000, 7.994000)">
                    <mask id="mask-70" fill="white">
                        <use xlink:href="#path-69"></use>
                    </mask>
                    <g id="Clip-314"></g>
                    <path d="M0.356,46.315 C0.356,71.625 21.277,92.196 47.019,92.196 L47.019,92.196 C72.76,92.196 93.681,71.625 93.681,46.315 L93.681,46.315 C93.681,21.007 72.76,0.436 47.019,0.436 L47.019,0.436 C21.277,0.436 0.356,21.007 0.356,46.315" id="Fill-313" mask="url(#mask-70)"></path>
                </g>
                <g id="Group-318" transform="translate(6.000000, 7.994000)">
                    <mask id="mask-72" fill="white">
                        <use xlink:href="#path-71"></use>
                    </mask>
                    <g id="Clip-317"></g>
                    <path d="M0.41,46.335 C0.41,71.602 21.305,92.137 47.019,92.137 L47.019,92.137 C72.732,92.137 93.628,71.602 93.628,46.335 L93.628,46.335 C93.628,21.067 72.732,0.533 47.019,0.533 L47.019,0.533 C21.305,0.533 0.41,21.067 0.41,46.335" id="Fill-316" mask="url(#mask-72)"></path>
                </g>
                <g id="Group-321" transform="translate(6.000000, 7.994000)">
                    <mask id="mask-74" fill="white">
                        <use xlink:href="#path-73"></use>
                    </mask>
                    <g id="Clip-320"></g>
                    <path d="M0.463,46.354 C0.463,71.58 21.334,92.079 47.019,92.079 L47.019,92.079 C72.703,92.079 93.574,71.58 93.574,46.354 L93.574,46.354 C93.574,21.127 72.703,0.63 47.019,0.63 L47.019,0.63 C21.334,0.63 0.463,21.127 0.463,46.354" id="Fill-319" mask="url(#mask-74)"></path>
                </g>
                <g id="Group-324" transform="translate(6.000000, 7.994000)">
                    <mask id="mask-76" fill="white">
                        <use xlink:href="#path-75"></use>
                    </mask>
                    <g id="Clip-323"></g>
                    <path d="M0.517,46.374 C0.517,71.557 21.362,92.02 47.019,92.02 L47.019,92.02 C72.675,92.02 93.52,71.557 93.52,46.374 L93.52,46.374 C93.52,21.19 72.675,0.727 47.019,0.727 L47.019,0.727 C21.362,0.727 0.517,21.19 0.517,46.374" id="Fill-322" mask="url(#mask-76)"></path>
                </g>
                <g id="Group-327" transform="translate(6.000000, 7.994000)">
                    <mask id="mask-78" fill="white">
                        <use xlink:href="#path-77"></use>
                    </mask>
                    <g id="Clip-326"></g>
                    <path d="M0.571,46.393 C0.571,71.535 21.391,91.962 47.019,91.962 L47.019,91.962 C72.647,91.962 93.467,71.535 93.467,46.393 L93.467,46.393 C93.467,21.251 72.647,0.825 47.019,0.825 L47.019,0.825 C21.391,0.825 0.571,21.251 0.571,46.393" id="Fill-325" mask="url(#mask-78)"></path>
                </g>
                <g id="Group-330" transform="translate(6.000000, 7.994000)">
                    <mask id="mask-80" fill="white">
                        <use xlink:href="#path-79"></use>
                    </mask>
                    <g id="Clip-329"></g>
                    <path d="M0.624,46.413 C0.624,71.515 21.419,91.903 47.019,91.903 L47.019,91.903 C72.619,91.903 93.413,71.515 93.413,46.413 L93.413,46.413 C93.413,21.311 72.619,0.922 47.019,0.922 L47.019,0.922 C21.419,0.922 0.624,21.311 0.624,46.413" id="Fill-328" mask="url(#mask-80)"></path>
                </g>
                <g id="Group-333" transform="translate(6.000000, 8.994000)">
                    <mask id="mask-82" fill="white">
                        <use xlink:href="#path-81"></use>
                    </mask>
                    <g id="Clip-332"></g>
                    <path d="M0.678,45.433 C0.678,70.491 21.447,90.845 47.019,90.845 L47.019,90.845 C72.59,90.845 93.36,70.491 93.36,45.433 L93.36,45.433 C93.36,20.374 72.59,0.02 47.019,0.02 L47.019,0.02 C21.447,0.02 0.678,20.374 0.678,45.433" id="Fill-331" mask="url(#mask-82)"></path>
                </g>
                <g id="Group-336" transform="translate(6.000000, 8.994000)">
                    <mask id="mask-84" fill="white">
                        <use xlink:href="#path-83"></use>
                    </mask>
                    <g id="Clip-335"></g>
                    <path d="M0.731,45.451 C0.731,70.47 21.475,90.785 47.019,90.785 L47.019,90.785 C72.562,90.785 93.306,70.47 93.306,45.451 L93.306,45.451 C93.306,20.434 72.562,0.118 47.019,0.118 L47.019,0.118 C21.475,0.118 0.731,20.434 0.731,45.451" id="Fill-334" mask="url(#mask-84)"></path>
                </g>
                <g id="Group-339" transform="translate(6.000000, 8.994000)">
                    <mask id="mask-86" fill="white">
                        <use xlink:href="#path-85"></use>
                    </mask>
                    <g id="Clip-338"></g>
                    <path d="M0.785,45.471 C0.785,70.446 21.504,90.727 47.019,90.727 L47.019,90.727 C72.534,90.727 93.252,70.446 93.252,45.471 L93.252,45.471 C93.252,20.494 72.534,0.216 47.019,0.216 L47.019,0.216 C21.504,0.216 0.785,20.494 0.785,45.471" id="Fill-337" mask="url(#mask-86)"></path>
                </g>
                <g id="Group-342" transform="translate(6.000000, 8.994000)">
                    <mask id="mask-88" fill="white">
                        <use xlink:href="#path-87"></use>
                    </mask>
                    <g id="Clip-341"></g>
                    <path d="M0.839,45.491 C0.839,70.425 21.532,90.668 47.019,90.668 L47.019,90.668 C72.505,90.668 93.199,70.425 93.199,45.491 L93.199,45.491 C93.199,20.557 72.505,0.313 47.019,0.313 L47.019,0.313 C21.532,0.313 0.839,20.557 0.839,45.491" id="Fill-340" mask="url(#mask-88)"></path>
                </g>
                <g id="Group-345" transform="translate(6.000000, 8.994000)">
                    <mask id="mask-90" fill="white">
                        <use xlink:href="#path-89"></use>
                    </mask>
                    <g id="Clip-344"></g>
                    <path d="M0.892,45.51 C0.892,70.401 21.561,90.61 47.019,90.61 L47.019,90.61 C72.477,90.61 93.145,70.401 93.145,45.51 L93.145,45.51 C93.145,20.618 72.477,0.411 47.019,0.411 L47.019,0.411 C21.561,0.411 0.892,20.618 0.892,45.51" id="Fill-343" mask="url(#mask-90)"></path>
                </g>
                <g id="Group-348" transform="translate(6.000000, 8.994000)">
                    <mask id="mask-92" fill="white">
                        <use xlink:href="#path-91"></use>
                    </mask>
                    <g id="Clip-347"></g>
                    <path d="M0.946,45.53 C0.946,70.38 21.589,90.551 47.019,90.551 L47.019,90.551 C72.45,90.551 93.092,70.38 93.092,45.53 L93.092,45.53 C93.092,20.678 72.45,0.508 47.019,0.508 L47.019,0.508 C21.589,0.508 0.946,20.678 0.946,45.53" id="Fill-346" mask="url(#mask-92)"></path>
                </g>
                <g id="Group-351" transform="translate(7.000000, 8.994000)">
                    <mask id="mask-94" fill="white">
                        <use xlink:href="#path-93"></use>
                    </mask>
                    <g id="Clip-350"></g>
                   
    </g>
</svg>