<svg width="1003px" height="395px" viewBox="0 0 1003 395" version="1.1" xmlns="http://www.w3.org/2000/svg" xmlns:xlink="http://www.w3.org/1999/xlink">
    <!-- Generator: Sketch 63.1 (92452) - https://sketch.com -->
    <title>Untitled 8</title>
    <desc>Created with Sketch.</desc>
    <g id="Page-1" stroke="none" stroke-width="1" fill="none" fill-rule="evenodd">
        <rect id="Rectangle" fill="#FFFFFF" fill-rule="nonzero" x="914" y="0" width="89" height="395"></rect>
        <rect id="C4" stroke="#D2D2D2" fill="#FFFFFF" x="0.5" y="0.5" width="90" height="394"></rect>
        <rect id="A4" stroke="#D2D2D2" fill="#FFFFFF" x="455.5" y="0.5" width="90" height="394"></rect>
        <rect id="D4" stroke="#D2D2D2" fill="#FFFFFF" x="91.5" y="0.5" width="90" height="394"></rect>
        <rect id="B4" stroke="#D2D2D2" fill="#FFFFFF" x="546.5" y="0.5" width="90" height="394"></rect>
        <rect id="E4" stroke="#D2D2D2" fill="#FFFFFF" x="182.5" y="0.5" width="90" height="394"></rect>
        <rect id="C5" stroke="#D2D2D2" fill="#FFFFFF" x="637.5" y="0.5" width="90" height="394"></rect>
        <rect id="F4" stroke="#D2D2D2" fill="#FFFFFF" x="273.5" y="0.5" width="90" height="394"></rect>
        <rect id="D5" stroke="#D2D2D2" fill="#FFFFFF" x="728.5" y="0.5" width="90" height="394"></rect>
        <rect id="G4" stroke="#D2D2D2" fill="#FFFFFF" x="364.5" y="0.5" width="90" height="394"></rect>
        <rect id="E5" stroke="#D2D2D2" fill="#FFFFFF" x="819.5" y="0.5" width="90" height="394"></rect>
        <rect id="F5" stroke="#D2D2D2" fill="#FFFFFF" x="910.5" y="0.5" width="90" height="394"></rect>
        <rect id="Csh" stroke="#979797" fill="#000000" x="68.5" y="0.5" width="45" height="229"></rect>
        <rect id="Rectangle-Copy-12" stroke="#979797" fill="#D8D8D8" x="158.5" y="0.5" width="45" height="229"></rect>
        <rect id="Dsh" stroke="#979797" fill="#000000" x="157.5" y="0.5" width="45" height="229"></rect>
        <rect id="Fsh" stroke="#979797" fill="#000000" x="340.5" y="0.5" width="45" height="229"></rect>
        <rect id="Gsh" stroke="#979797" fill="#000000" x="432.5" y="0.5" width="45" height="229"></rect>
        <rect id="Ash" stroke="#979797" fill="#000000" x="524.5" y="0.5" width="45" height="229"></rect>
        <rect id="Csh2" stroke="#979797" fill="#000000" x="706.5" y="0.5" width="45" height="229"></rect>
        <rect id="Dsh2" stroke="#979797" fill="#000000" x="795.5" y="0.5" width="45" height="229"></rect>
    </g>
</svg>